<!-- Generator: Adobe Illustrator 18.0.0, SVG Export Plug-In  -->
<svg version="1.1"
	 xmlns="http://www.w3.org/2000/svg" xmlns:xlink="http://www.w3.org/1999/xlink" xmlns:a="http://ns.adobe.com/AdobeSVGViewerExtensions/3.0/"
	 x="0px" y="0px" width="1062.9px" height="237.1px" viewBox="0 0 1062.9 237.1" enable-background="new 0 0 1062.9 237.1"
	 xml:space="preserve">
<defs>
</defs>
<path fill="#205DFE" d="M187,17.1h-4.6c-1,0-1.8-0.8-1.8-1.8V8.5c0-4.4-3.3-8.2-7.7-8.5c-4.8-0.3-8.8,3.5-8.8,8.2v7.1
	c0,1-0.8,1.8-1.8,1.8h-95c-1,0-1.8-0.8-1.8-1.8V8.5c0-4.4-3.3-8.2-7.7-8.5c-4.8-0.3-8.8,3.5-8.8,8.2v7.1c0,1-0.8,1.8-1.8,1.8h-5.3
	c-19.3,0-35,15.7-35,35v144.7c0,19.3,15.7,35,35,35h64.3c3.6,0,7.1-0.7,10.4-2.1c4.1-1.9,8.4-5.2,10.1-11.2
	c4.5-16.4,3.3-27.5,10-35.9c6.7-8.3,16-7.4,21.7-7.4c22.5-0.1,50.4-3.7,60.5-19.8c1.9-3,2.8-6.6,2.8-10.1V52.1
	C222,32.8,206.4,17.1,187,17.1"/>
<path fill="#205DFE" d="M125.1,231.8H187c19.3,0,35-15.7,35-35v-39.4c0-0.3-0.4-0.4-0.5-0.1c-6.5,28.3-39.1,67.7-96.4,73.9
	C124.7,231.2,124.7,231.8,125.1,231.8"/>
<g>
	<defs>
		<path id="SVGID_1_" d="M54.3,148.4c-8.6,2.4-12,6.3-12,6.3l-8.6,14.8c-6.1,10.4-2.5,23.8,7.9,29.9c3.5,2,7.2,3,11,3
			c7.5,0,14.9-3.9,18.9-10.9L97.3,147H84.7c0,0-2.8-0.1-6.8-0.1C70.4,146.9,58.9,147.1,54.3,148.4"/>
	</defs>
	<clipPath id="SVGID_2_">
		<use xlink:href="#SVGID_1_"  overflow="visible"/>
	</clipPath>
	
		<linearGradient id="SVGID_3_" gradientUnits="userSpaceOnUse" x1="-174.7771" y1="4666.1934" x2="-173.7771" y2="4666.1934" gradientTransform="matrix(52.9189 -56.2015 -56.2015 -52.9189 271543.375 237297.8594)">
		<stop  offset="0" style="stop-color:#FFFFFF"/>
		<stop  offset="0.2151" style="stop-color:#EAEAF7"/>
		<stop  offset="0.757" style="stop-color:#9A97F4"/>
		<stop  offset="1" style="stop-color:#8C88F4"/>
	</linearGradient>
	<polygon clip-path="url(#SVGID_2_)" fill="url(#SVGID_3_)" points="0,176.3 60.4,112.1 125,173 64.6,237.1 	"/>
</g>
<path fill="#FFFFFF" d="M148.7,47.2h-64c-12.1,0-21.9,9.8-21.9,21.9c0,12.1,9.8,21.9,21.9,21.9h64c3.4,0,6.2,2.8,6.2,6.2
	c0,3.4-2.8,6.2-6.2,6.2h-64c-8.3,0-15.5,4.6-19.2,11.4h0l-7.2,12.4l-16,27.6c0,0,3.4-3.9,12-6.3c7.1-2,30.5-1.4,30.5-1.4h12.6h51.4
	c27.5,0,49.9-22.4,49.9-49.9C198.6,69.6,176.2,47.2,148.7,47.2"/>
<path fill="#3C3C3B" d="M306.5,95.5c1.2-3.1,1.7-6.2,1.7-9.5c0-3.1-0.6-6.2-1.8-9.2c-1.2-3.1-2.9-5.8-5.1-8.2
	c-2.2-2.4-4.7-4.4-7.7-5.8c-3-1.5-6.3-2.2-9.8-2.2h-32.5v76.8h14.9v-25.7h18.2c3.5,0,6.8-0.7,9.7-2.2c3-1.4,5.5-3.4,7.6-5.7
	C303.7,101.3,305.4,98.6,306.5,95.5 M290.3,95.1c-1.8,2.2-4.1,3.4-6.9,3.4h-17.3V73.6h16.6c1.3,0,2.6,0.3,3.8,0.8
	c1.3,0.5,2.4,1.4,3.3,2.4c0.9,1.1,1.7,2.4,2.3,3.9c0.6,1.6,0.9,3.3,0.9,5.2C293.1,89.9,292.2,92.9,290.3,95.1"/>
<path fill="#3C3C3B" d="M363.1,108.4c4.3-1.8,7.6-4.7,10.1-8.8c2.5-4.1,3.7-8.6,3.7-13.6c0-3.1-0.6-6.2-1.8-9.2
	c-1.2-3.1-2.9-5.8-5.1-8.2c-2.2-2.4-4.7-4.4-7.7-5.8c-3-1.5-6.3-2.2-9.8-2.2h-33.9v76.8h14.9v-25.7h14.7l15.7,25.7h16.8L363.1,108.4
	z M361.2,90.9c-0.5,1.5-1.2,2.8-2.1,3.9c-0.9,1.1-1.9,2-3.1,2.6c-1.2,0.6-2.5,1-3.8,1h-18.7V73.6h18.1c1.3,0,2.6,0.3,3.8,0.9
	c1.3,0.6,2.4,1.5,3.4,2.6c1,1.1,1.7,2.4,2.3,3.9c0.6,1.5,0.9,3.2,0.9,5C362,87.8,361.7,89.4,361.2,90.9"/>
<path fill="#3C3C3B" d="M450.2,126.1c3.3-3.6,5.9-7.7,7.8-12.3c1.9-4.6,2.8-9.5,2.8-14.6c0-4.8-0.9-9.6-2.7-14.3
	c-1.8-4.7-4.3-8.9-7.6-12.5c-3.2-3.7-7.2-6.6-11.7-8.9c-4.6-2.3-9.6-3.4-15.2-3.4c-5.4,0-10.4,1.1-15,3.2c-4.6,2.1-8.6,5-11.9,8.6
	c-3.4,3.6-6,7.7-7.9,12.4c-1.9,4.7-2.9,9.6-2.9,14.7c0,4.9,0.9,9.7,2.7,14.4c1.8,4.7,4.3,8.8,7.6,12.5c3.3,3.6,7.2,6.6,11.8,8.8
	c4.6,2.2,9.7,3.3,15.3,3.3c5.4,0,10.4-1.1,15-3.2C442.9,132.5,446.9,129.7,450.2,126.1 M423.4,124.7c-3.5,0-6.7-0.7-9.5-2.2
	c-2.8-1.4-5.1-3.4-7-5.7c-1.9-2.4-3.4-5.1-4.4-8.2c-1-3.1-1.5-6.3-1.5-9.6c0-3.2,0.5-6.3,1.5-9.4c1-3.1,2.4-5.8,4.3-8.2
	c1.9-2.4,4.2-4.4,7-5.8c2.8-1.5,6-2.2,9.6-2.2c3.5,0,6.6,0.7,9.4,2.1c2.8,1.4,5.1,3.3,7,5.7c1.9,2.4,3.4,5.1,4.4,8.2
	c1,3.1,1.6,6.3,1.6,9.6c0,3.2-0.5,6.3-1.5,9.4c-1,3.1-2.4,5.8-4.3,8.3c-1.9,2.5-4.3,4.4-7,5.9C430.2,123.9,427,124.7,423.4,124.7"/>
<polygon fill="#3C3C3B" points="487.2,137.3 502.1,137.3 502.1,110.5 529.9,60.6 513.8,60.6 494.6,97.5 475.7,60.6 459.5,60.6 
	487.2,110.3 "/>
<polygon fill="#3C3C3B" points="591.7,124.2 553.3,124.2 553.3,104.2 585.6,104.2 585.6,92.1 553.3,92.1 553.3,73.6 590.7,73.6 
	590.7,60.6 538.4,60.6 538.4,137.3 591.7,137.3 "/>
<path fill="#3C3C3B" d="M660.6,127.7c2.3-2.2,4-4.7,5.2-7.6l-12.2-7c-0.9,2.1-2,3.9-3.5,5.4c-1.4,1.5-3,2.7-4.7,3.6
	c-1.7,0.9-3.5,1.6-5.4,2.1c-1.9,0.4-3.7,0.6-5.4,0.6c-3.3,0-6.4-0.7-9.1-2.2c-2.8-1.4-5.2-3.4-7.1-5.7c-2-2.4-3.5-5.1-4.6-8.3
	c-1.1-3.1-1.6-6.4-1.6-9.8c0-3,0.5-6.1,1.4-9.1c0.9-3.1,2.3-5.8,4.2-8.2c1.8-2.4,4.1-4.4,6.9-5.9c2.8-1.5,6-2.3,9.8-2.3
	c1.7,0,3.5,0.2,5.3,0.6c1.8,0.4,3.5,1,5.2,1.9c1.7,0.9,3.2,2,4.6,3.5c1.4,1.5,2.7,3.3,3.7,5.5l11.5-7.9c-2.5-5-6.4-9-11.5-12.1
	c-5.2-3.1-11.3-4.6-18.3-4.6c-6,0-11.3,1.1-16,3.4c-4.7,2.2-8.6,5.2-11.9,8.8c-3.2,3.6-5.7,7.7-7.4,12.3c-1.7,4.6-2.5,9.2-2.5,13.9
	c0,4.9,0.9,9.7,2.8,14.4c1.8,4.7,4.4,8.9,7.7,12.6c3.3,3.7,7.2,6.7,11.7,9c4.5,2.3,9.5,3.5,15,3.5c3.1,0,6.3-0.4,9.5-1.2
	c3.2-0.8,6.3-1.9,9.1-3.5C655.8,131.8,658.3,129.9,660.6,127.7"/>
<path fill="#3C3C3B" d="M723.6,118.4c-1.4,1.5-3,2.7-4.7,3.6c-1.7,0.9-3.5,1.6-5.4,2.1c-1.9,0.4-3.7,0.6-5.4,0.6
	c-3.3,0-6.4-0.7-9.1-2.2c-2.8-1.4-5.2-3.4-7.1-5.7c-2-2.4-3.5-5.1-4.6-8.3c-1.1-3.1-1.6-6.4-1.6-9.8c0-3,0.5-6.1,1.4-9.1
	c0.9-3.1,2.3-5.8,4.2-8.2c1.8-2.4,4.1-4.4,6.9-5.9c2.8-1.5,6-2.3,9.8-2.3c1.7,0,3.5,0.2,5.3,0.6c1.8,0.4,3.5,1,5.2,1.9
	c1.7,0.9,3.2,2,4.6,3.5c1.4,1.5,2.7,3.3,3.7,5.5l11.5-7.9c-2.5-5-6.4-9-11.5-12.1c-5.2-3.1-11.3-4.6-18.3-4.6c-6,0-11.3,1.1-16,3.4
	c-4.7,2.2-8.6,5.2-11.9,8.8c-3.2,3.6-5.7,7.7-7.4,12.3c-1.7,4.6-2.5,9.2-2.5,13.9c0,4.9,0.9,9.7,2.8,14.4c1.8,4.7,4.4,8.9,7.7,12.6
	c3.3,3.7,7.2,6.7,11.7,9c4.5,2.3,9.5,3.5,15,3.5c3.1,0,6.3-0.4,9.5-1.2c3.2-0.8,6.3-1.9,9.1-3.5c2.8-1.5,5.4-3.4,7.7-5.6
	c2.3-2.2,4-4.7,5.2-7.6l-12.2-7C726.2,115.2,725,117,723.6,118.4"/>
<rect x="749.3" y="60.6" fill="#3C3C3B" width="14.9" height="76.8"/>
<path fill="#3C3C3B" d="M839.9,126.1c3.3-3.6,5.9-7.7,7.8-12.3c1.9-4.6,2.8-9.5,2.8-14.6c0-4.8-0.9-9.6-2.7-14.3
	c-1.8-4.7-4.3-8.9-7.6-12.5c-3.2-3.7-7.2-6.6-11.7-8.9c-4.6-2.3-9.6-3.4-15.2-3.4c-5.4,0-10.4,1.1-15,3.2c-4.6,2.1-8.6,5-11.9,8.6
	c-3.4,3.6-6,7.7-7.9,12.4c-1.9,4.7-2.9,9.6-2.9,14.7c0,4.9,0.9,9.7,2.7,14.4c1.8,4.7,4.3,8.8,7.6,12.5c3.3,3.6,7.2,6.6,11.8,8.8
	c4.6,2.2,9.7,3.3,15.3,3.3c5.4,0,10.4-1.1,15-3.2C832.6,132.5,836.6,129.7,839.9,126.1 M834,108.3c-1,3.1-2.4,5.8-4.3,8.3
	c-1.9,2.5-4.3,4.4-7,5.9c-2.8,1.5-6,2.2-9.6,2.2c-3.5,0-6.7-0.7-9.5-2.2c-2.8-1.4-5.1-3.4-7-5.7c-1.9-2.4-3.4-5.1-4.4-8.2
	c-1-3.1-1.5-6.3-1.5-9.6c0-3.2,0.5-6.3,1.5-9.4c1-3.1,2.4-5.8,4.3-8.2c1.9-2.4,4.2-4.4,7-5.8c2.8-1.5,6-2.2,9.6-2.2
	c3.5,0,6.6,0.7,9.4,2.1c2.8,1.4,5.1,3.3,7,5.7c1.9,2.4,3.4,5.1,4.4,8.2c1,3.1,1.6,6.3,1.6,9.6C835.4,102.1,835,105.2,834,108.3"/>
<polygon fill="#3C3C3B" points="876.8,88.1 916.3,137.3 928.4,137.3 928.4,60.7 913.5,60.7 913.5,110.9 873.5,60.6 861.9,60.6 
	861.9,137.3 876.8,137.3 "/>
<polygon fill="#3C3C3B" points="997.7,124.2 959.3,124.2 959.3,104.2 991.6,104.2 991.6,92.1 959.3,92.1 959.3,73.6 996.7,73.6 
	996.7,60.6 944.4,60.6 944.4,137.3 997.7,137.3 "/>
<path fill="#3C3C3B" d="M1034.6,124.8c-3,0-5.8-0.4-8.6-1.1c-2.8-0.7-5.4-1.6-7.7-2.6c-2.3-1-4.3-2.1-6-3.1c-1.7-1-2.9-1.9-3.5-2.5
	l-6.6,12.9c4.5,3.2,9.5,5.6,15.1,7.4c5.6,1.7,11.3,2.6,17.1,2.6c3.7,0,7.3-0.4,10.8-1.2c3.4-0.8,6.4-2.1,9.1-3.9
	c2.6-1.8,4.7-4.2,6.3-7.1c1.5-2.9,2.3-6.4,2.3-10.5c0-3.5-0.6-6.5-1.7-8.9c-1.2-2.4-2.8-4.5-4.9-6.2c-2.1-1.7-4.7-3.2-7.8-4.3
	c-3.1-1.2-6.5-2.2-10.2-3.2c-2.9-0.7-5.4-1.4-7.6-2.1c-2.2-0.6-4-1.4-5.5-2.2c-1.4-0.8-2.5-1.7-3.3-2.8c-0.8-1-1.1-2.4-1.1-3.9
	c0-2.7,1-4.9,3-6.4c2-1.5,5.1-2.3,9.2-2.3c2.3,0,4.6,0.3,6.8,0.9c2.2,0.6,4.3,1.3,6.2,2.1c1.9,0.8,3.5,1.7,4.9,2.5
	c1.3,0.9,2.3,1.5,2.8,2.1l6.6-12.1c-3.4-2.3-7.4-4.3-11.9-6c-4.5-1.7-9.5-2.5-14.9-2.5c-3.9,0-7.5,0.5-10.9,1.6
	c-3.4,1-6.4,2.6-8.9,4.6c-2.6,2-4.6,4.5-6,7.6c-1.4,3-2.2,6.5-2.2,10.4c0,3,0.4,5.5,1.4,7.6c0.9,2.1,2.3,4,4.1,5.6
	c1.8,1.6,4.1,3,6.8,4.2c2.7,1.2,5.9,2.3,9.6,3.3c3,0.9,5.8,1.7,8.2,2.4c2.4,0.7,4.5,1.5,6.3,2.4c1.7,0.9,3.1,1.9,4,3
	c0.9,1.2,1.4,2.6,1.4,4.2C1046.9,122.1,1042.8,124.8,1034.6,124.8"/>
<path fill="#3C3C3B" d="M273.4,159.4c-1.8-1-4-1.6-6.4-1.6h-10h-2.8h-2.9v40.7h5.7v-15.8h10c2.4,0,4.6-0.5,6.4-1.5
	c1.8-1,3.3-2.5,4.3-4.3c1-1.9,1.5-4.1,1.5-6.5s-0.5-4.7-1.5-6.5C276.7,161.9,275.2,160.4,273.4,159.4 M272.6,174
	c-0.5,1.1-1.2,1.9-2.2,2.5c-0.9,0.6-2,0.9-3.2,0.9h-10.2v-14h10.2c1.2,0,2.3,0.3,3.2,0.9c0.9,0.6,1.7,1.4,2.2,2.5s0.8,2.3,0.8,3.7
	C273.4,171.7,273.1,172.9,272.6,174"/>
<path fill="#3C3C3B" d="M292.5,192.7c-0.3-0.4-0.5-0.9-0.5-1.6v-33.2h-5.7V191c0,2.4,0.6,4.3,1.8,5.7c1.2,1.3,2.9,2,5,2h3.4v-5.4
	h-2.7C293.2,193.2,292.8,193,292.5,192.7"/>
<path fill="#3C3C3B" d="M319.2,170.3c-1.7-0.8-3.8-1.3-6.2-1.3c-2.2,0-4.2,0.4-6,1.1c-1.8,0.7-3.2,1.8-4.4,3.1l4.2,2.9
	c0.9-0.6,1.8-1.1,3-1.5c1.1-0.4,2.2-0.5,3.4-0.5c1.9,0,3.3,0.5,4.3,1.6c1,1.1,1.5,2.5,1.5,4.4v1.2h-8c-3.3,0-5.7,0.7-7.4,2.2
	s-2.4,3.6-2.4,6.5c0,3,0.9,5.3,2.7,6.8c1.8,1.5,4.4,2.2,8,2.2c1.2,0,2.3-0.1,3.3-0.4c1-0.3,1.8-0.6,2.6-1.1c0.5-0.3,0.9-0.7,1.3-1.2
	v2.3h5.4v-18.7c0-2.3-0.4-4.2-1.3-5.8C322.2,172.4,320.9,171.2,319.2,170.3 M317.4,193.6c-1.1,0.5-2.7,0.7-4.9,0.7
	c-2,0-3.5-0.4-4.5-1.1c-1-0.7-1.5-1.8-1.5-3.3c0-1.4,0.4-2.4,1.1-3c0.7-0.7,1.9-1,3.3-1h8v5.5C319,192.4,318.5,193.1,317.4,193.6"/>
<path fill="#3C3C3B" d="M346.5,169.1c-1.8,0-3.4,0.5-4.8,1.4c-1.2,0.8-2.1,1.8-2.9,3v-4.1h-5.7v29h5.7v-18.4c0-1.8,0.5-3.2,1.5-4.2
	c1-1,2.5-1.5,4.3-1.5c1.9,0,3.4,0.6,4.5,1.7c1.1,1.1,1.6,2.7,1.6,4.8v17.6h5.7v-17.6c0-3.8-0.9-6.7-2.6-8.7
	C352.1,170.1,349.7,169.1,346.5,169.1"/>
<path fill="#3C3C3B" d="M382.7,170.9c-1.7-1.2-3.8-1.8-6.2-1.8c-2.6,0-4.8,0.5-6.6,1.6c-1.8,1.1-3.2,2.6-4.2,4.6
	c-1,2-1.4,4.5-1.4,7.4v3.3c0,2.8,0.5,5.1,1.5,7.1c1,1.9,2.4,3.4,4.3,4.4c1.9,1,4.2,1.5,6.9,1.5c1.8,0,3.6-0.4,5.4-1.1
	c1.8-0.8,3.4-1.8,4.8-3.2l-3.7-3.7c-0.9,0.8-1.9,1.5-3,2c-1.1,0.5-2.3,0.7-3.4,0.7c-2.3,0-4.1-0.6-5.4-1.9c-1.2-1.2-1.8-3-1.9-5.3
	H388v-1.9c0-3.2-0.5-6-1.4-8.3C385.7,173.8,384.4,172.1,382.7,170.9 M369.7,181.7c0.1-2.3,0.7-4.1,1.7-5.4c1.2-1.4,2.9-2.1,5-2.1
	c1.8,0,3.2,0.7,4.2,2c1.1,1.3,1.7,3.2,1.8,5.5H369.7z"/>
<path fill="#3C3C3B" d="M413.2,181.9c-1.4-0.4-3.2-0.7-5.2-0.8c-0.1,0-0.1,0-0.2,0h-0.2c-0.1,0-0.3,0-0.4,0c-0.1,0-0.2,0-0.4,0
	c-1.5-0.1-2.7-0.2-3.6-0.3c-0.8-0.1-1.5-0.4-2.1-0.8c-0.6-0.4-0.8-1-0.8-1.8c0-1.3,0.5-2.3,1.5-3c1-0.7,2.4-1,4.4-1
	c1.3,0,2.7,0.2,4.1,0.7c1.4,0.5,2.8,1.2,4.3,2.1l3.4-4.2c-1.2-0.8-2.4-1.5-3.6-2.1c-1.2-0.6-2.6-1-3.9-1.2c-1.4-0.3-2.8-0.4-4.3-0.4
	c-2.5,0-4.6,0.3-6.2,1c-1.7,0.7-2.9,1.7-3.7,3.1c-0.8,1.4-1.3,3.1-1.3,5.1c0,2.1,0.4,3.6,1.3,4.7c0.9,1.1,2,1.9,3.3,2.3
	c1.3,0.4,2.9,0.7,4.8,0.8c0.1,0,0.1,0,0.2,0c0.1,0,0.1,0,0.2,0c0.1,0,0.3,0,0.5,0c0.2,0,0.3,0,0.5,0c1.7,0.1,2.9,0.3,3.9,0.4
	c0.9,0.2,1.7,0.5,2.3,0.9c0.6,0.5,0.9,1.2,0.9,2.1c0,1.4-0.6,2.4-1.7,3.1c-1.1,0.7-2.8,1-5.1,1c-1.5,0-3-0.3-4.6-0.9
	c-1.5-0.6-3.1-1.5-4.7-2.7l-3.4,4.2c1.1,1,2.3,1.8,3.6,2.5c1.3,0.7,2.7,1.2,4.2,1.5c1.5,0.3,3.1,0.5,4.8,0.5c2.7,0,5-0.3,6.8-1
	c1.8-0.7,3.1-1.7,4-3.1c0.9-1.4,1.3-3.1,1.3-5.2c0-2.3-0.5-4-1.5-5.3C415.8,183.1,414.6,182.3,413.2,181.9"/>
<path fill="#3C3C3B" d="M451,190.1l-7.3-20.7h-5.8l10.5,28.6l-1.4,4.2c-0.5,1-1,1.8-1.6,2.2c-0.6,0.4-1.5,0.6-2.5,0.6h-1.1v5.5h1.1
	c1.5,0,2.9-0.2,3.9-0.5c1.1-0.3,2-0.9,2.7-1.7c0.7-0.8,1.3-1.8,1.8-3.1l12.4-35.8h-5.8L451,190.1z"/>
<path fill="#3C3C3B" d="M490.6,167.6c0.7-1.4,1.7-2.6,2.9-3.4c1.2-0.8,2.7-1.2,4.4-1.2c1.2,0,2.3,0.3,3.5,0.8
	c1.1,0.5,2.1,1.3,2.9,2.3c0.8,1,1.4,2.1,1.8,3.4h5.8c-0.5-2.4-1.4-4.5-2.7-6.3c-1.3-1.8-3-3.2-4.9-4.2c-2-1-4.1-1.5-6.4-1.5
	c-2.8,0-5.3,0.6-7.4,1.9c-2.1,1.3-3.8,3-5,5.3c-1.2,2.3-1.8,5-1.8,8v11.2c0,3,0.6,5.7,1.8,8c1.2,2.3,2.8,4.1,5,5.3
	c2.1,1.2,4.6,1.9,7.4,1.9c2.3,0,4.4-0.5,6.4-1.5c2-1,3.6-2.4,4.9-4.2c1.3-1.8,2.2-3.9,2.7-6.3H506c-0.4,1.4-0.9,2.5-1.8,3.5
	c-0.8,1-1.8,1.7-2.9,2.2c-1.1,0.5-2.3,0.8-3.5,0.8c-1.7,0-3.1-0.4-4.4-1.2c-1.2-0.8-2.2-1.9-2.9-3.4c-0.7-1.5-1-3.1-1-5v-11.2
	C489.5,170.7,489.9,169,490.6,167.6"/>
<path fill="#3C3C3B" d="M537,170.5c-1.8-1-3.9-1.5-6.5-1.5c-2.5,0-4.7,0.5-6.5,1.5c-1.8,1-3.2,2.4-4.1,4.3c-0.9,1.9-1.4,4.1-1.4,6.8
	v4.7c0,2.7,0.5,4.9,1.4,6.8c0.9,1.9,2.3,3.3,4.1,4.3c1.8,1,3.9,1.5,6.5,1.5c2.5,0,4.7-0.5,6.5-1.5c1.8-1,3.2-2.4,4.1-4.3
	s1.4-4.1,1.4-6.8v-4.8c0-2.6-0.5-4.9-1.4-6.8S538.8,171.5,537,170.5 M536.8,186.4c0,2.3-0.5,4-1.6,5.3s-2.6,1.9-4.6,1.9
	s-3.5-0.6-4.6-1.9c-1.1-1.2-1.6-3-1.6-5.3v-4.8c0-2.3,0.5-4,1.6-5.2c1.1-1.2,2.6-1.8,4.6-1.8s3.5,0.6,4.6,1.8c1.1,1.2,1.6,3,1.6,5.2
	V186.4z"/>
<path fill="#3C3C3B" d="M568.2,170.5c-1.8-1-3.9-1.5-6.5-1.5c-2.5,0-4.7,0.5-6.5,1.5c-1.8,1-3.2,2.4-4.1,4.3
	c-0.9,1.9-1.4,4.1-1.4,6.8v4.7c0,2.7,0.5,4.9,1.4,6.8c0.9,1.9,2.3,3.3,4.1,4.3c1.8,1,3.9,1.5,6.5,1.5c2.5,0,4.7-0.5,6.5-1.5
	c1.8-1,3.2-2.4,4.1-4.3s1.4-4.1,1.4-6.8v-4.8c0-2.6-0.5-4.9-1.4-6.8S570,171.5,568.2,170.5 M568,186.4c0,2.3-0.5,4-1.6,5.3
	s-2.6,1.9-4.6,1.9s-3.5-0.6-4.6-1.9c-1.1-1.2-1.6-3-1.6-5.3v-4.8c0-2.3,0.5-4,1.6-5.2c1.1-1.2,2.6-1.8,4.6-1.8s3.5,0.6,4.6,1.8
	c1.1,1.2,1.6,3,1.6,5.2V186.4z"/>
<path fill="#3C3C3B" d="M595.1,169.1c-1.7,0-3.3,0.5-4.7,1.4c-1.1,0.8-2.1,1.8-2.9,3v-4.1h-5.7v29h5.7v-18.4c0-1.8,0.5-3.2,1.5-4.2
	c1-1,2.4-1.5,4.2-1.5c1,0,1.9,0.2,2.7,0.5c0.8,0.3,1.4,0.8,1.9,1.4l3.7-5c-0.8-0.7-1.7-1.3-2.8-1.7
	C597.6,169.2,596.4,169.1,595.1,169.1"/>
<path fill="#3C3C3B" d="M622.2,173.1c-0.8-1.2-1.7-2.1-2.9-2.8c-1.4-0.9-3-1.3-4.7-1.3c-2.1,0-3.8,0.5-5.3,1.4
	c-1.5,0.9-2.6,2.3-3.3,4c-0.8,1.8-1.1,3.9-1.1,6.4v6.4c0,2.5,0.4,4.6,1.2,6.4c0.8,1.8,1.9,3.1,3.4,4c1.5,0.9,3.3,1.4,5.4,1.4
	c1.9,0,3.5-0.5,4.9-1.5c1.1-0.8,1.9-1.7,2.4-2.8v3.8h5.7v-40.7h-5.7V173.1z M621.5,191c-0.4,0.9-1.1,1.6-1.9,2.1
	c-0.8,0.5-1.9,0.7-3.1,0.7c-1.9,0-3.3-0.6-4.4-1.7c-1-1.1-1.6-2.8-1.6-4.9v-6.3c0-2.1,0.5-3.8,1.6-5c1-1.2,2.5-1.8,4.4-1.8
	c1.2,0,2.2,0.2,3.1,0.7c0.8,0.5,1.5,1.1,1.9,2c0.4,0.9,0.7,1.9,0.7,3.2v7.8C622.2,189.1,622,190.1,621.5,191"/>
<rect x="636.6" y="157.8" fill="#3C3C3B" width="5.7" height="5.7"/>
<rect x="636.6" y="169.5" fill="#3C3C3B" width="5.7" height="29"/>
<path fill="#3C3C3B" d="M664.4,169.1c-1.8,0-3.4,0.5-4.8,1.4c-1.2,0.8-2.1,1.8-2.9,3v-4.1H651v29h5.7v-18.4c0-1.8,0.5-3.2,1.5-4.2
	c1-1,2.5-1.5,4.3-1.5c1.9,0,3.4,0.6,4.5,1.7c1.1,1.1,1.6,2.7,1.6,4.8v17.6h5.7v-17.6c0-3.8-0.9-6.7-2.6-8.7
	C670,170.1,667.5,169.1,664.4,169.1"/>
<path fill="#3C3C3B" d="M699.5,170.3c-1.7-0.8-3.8-1.3-6.2-1.3c-2.2,0-4.2,0.4-6,1.1c-1.8,0.7-3.2,1.8-4.3,3.1l4.2,2.9
	c0.9-0.6,1.8-1.1,3-1.5c1.1-0.4,2.2-0.5,3.4-0.5c1.9,0,3.3,0.5,4.3,1.6c1,1.1,1.5,2.5,1.5,4.4v1.2h-8c-3.3,0-5.7,0.7-7.4,2.2
	s-2.4,3.6-2.4,6.5c0,3,0.9,5.3,2.7,6.8c1.8,1.5,4.4,2.2,8,2.2c1.2,0,2.3-0.1,3.3-0.4c1-0.3,1.8-0.6,2.6-1.1c0.5-0.3,0.9-0.7,1.3-1.2
	v2.3h5.4v-18.7c0-2.3-0.4-4.2-1.3-5.8C702.5,172.4,701.2,171.2,699.5,170.3 M697.7,193.6c-1.1,0.5-2.7,0.7-4.9,0.7
	c-2,0-3.5-0.4-4.5-1.1c-1-0.7-1.5-1.8-1.5-3.3c0-1.4,0.4-2.4,1.1-3c0.7-0.7,1.9-1,3.3-1h8v5.5C699.4,192.4,698.8,193.1,697.7,193.6"
	/>
<path fill="#3C3C3B" d="M720.1,176.3c1.2-1.2,2.9-1.8,5.1-1.8c1.2,0,2.3,0.3,3.4,0.8c1.1,0.5,2.1,1.2,2.9,2.2l4.1-3.7
	c-0.7-1-1.6-1.8-2.7-2.5c-1.1-0.7-2.3-1.2-3.6-1.6c-1.3-0.4-2.8-0.5-4.3-0.5c-2.6,0-4.9,0.5-6.8,1.5c-1.9,1-3.3,2.4-4.3,4.3
	c-1,1.9-1.5,4.1-1.5,6.7v4.8c0,2.7,0.5,4.9,1.5,6.8c1,1.9,2.4,3.3,4.3,4.3c1.9,1,4.1,1.5,6.8,1.5c1.5,0,2.9-0.2,4.2-0.5
	c1.3-0.4,2.5-0.9,3.6-1.6c1.1-0.7,2-1.5,2.7-2.5l-4.1-4c-0.8,1-1.8,1.8-2.9,2.3c-1.1,0.5-2.3,0.8-3.5,0.8c-2.2,0-3.9-0.6-5.1-1.9
	c-1.2-1.2-1.8-3-1.8-5.3v-4.8C718.3,179.3,718.9,177.6,720.1,176.3"/>
<rect x="742" y="169.5" fill="#3C3C3B" width="5.7" height="29"/>
<rect x="742" y="157.8" fill="#3C3C3B" width="5.7" height="5.7"/>
<path fill="#3C3C3B" d="M773.9,170.5c-1.8-1-3.9-1.5-6.5-1.5c-2.5,0-4.7,0.5-6.5,1.5c-1.8,1-3.2,2.4-4.1,4.3
	c-0.9,1.9-1.4,4.1-1.4,6.8v4.7c0,2.7,0.5,4.9,1.4,6.8c0.9,1.9,2.3,3.3,4.1,4.3c1.8,1,3.9,1.5,6.5,1.5c2.5,0,4.7-0.5,6.5-1.5
	c1.8-1,3.2-2.4,4.1-4.3s1.4-4.1,1.4-6.8v-4.8c0-2.6-0.5-4.9-1.4-6.8S775.7,171.5,773.9,170.5 M773.8,186.4c0,2.3-0.5,4-1.6,5.3
	s-2.6,1.9-4.6,1.9s-3.5-0.6-4.6-1.9c-1.1-1.2-1.6-3-1.6-5.3v-4.8c0-2.3,0.5-4,1.6-5.2c1.1-1.2,2.6-1.8,4.6-1.8s3.5,0.6,4.6,1.8
	c1.1,1.2,1.6,3,1.6,5.2V186.4z"/>
<polygon fill="#3C3C3B" points="776.5,154.5 772.4,151.1 764.4,161 768,163.9 "/>
<path fill="#3C3C3B" d="M801,169.1c-1.8,0-3.4,0.5-4.8,1.4c-1.2,0.8-2.1,1.8-2.9,3v-4.1h-5.7v29h5.7v-18.4c0-1.8,0.5-3.2,1.5-4.2
	c1-1,2.5-1.5,4.3-1.5c1.9,0,3.4,0.6,4.5,1.7c1.1,1.1,1.6,2.7,1.6,4.8v17.6h5.7v-17.6c0-3.8-0.9-6.7-2.6-8.7
	C806.6,170.1,804.1,169.1,801,169.1"/>
<path fill="#3C3C3B" d="M846.6,157.8l-15,40.7h6.2l3.1-8.9h16.4l3.1,8.9h6.2l-15-40.7H846.6z M842.7,184.2l6.3-18.5l6.3,18.5H842.7z
	"/>
<path fill="#3C3C3B" d="M876.4,167.6c0.7-1.4,1.7-2.6,2.9-3.4c1.2-0.8,2.7-1.2,4.4-1.2c1.2,0,2.3,0.3,3.5,0.8
	c1.1,0.5,2.1,1.3,2.9,2.3c0.8,1,1.4,2.1,1.8,3.4h5.8c-0.5-2.4-1.4-4.5-2.7-6.3c-1.3-1.8-3-3.2-4.9-4.2c-2-1-4.1-1.5-6.4-1.5
	c-2.8,0-5.3,0.6-7.4,1.9c-2.1,1.3-3.8,3-5,5.3c-1.2,2.3-1.8,5-1.8,8v11.2c0,3,0.6,5.7,1.8,8c1.2,2.3,2.8,4.1,5,5.3
	c2.1,1.2,4.6,1.9,7.4,1.9c2.3,0,4.4-0.5,6.4-1.5c2-1,3.6-2.4,4.9-4.2c1.3-1.8,2.2-3.9,2.7-6.3h-5.8c-0.4,1.4-0.9,2.5-1.8,3.5
	c-0.8,1-1.8,1.7-2.9,2.2c-1.1,0.5-2.3,0.8-3.5,0.8c-1.7,0-3.1-0.4-4.4-1.2c-1.2-0.8-2.2-1.9-2.9-3.4c-0.7-1.5-1-3.1-1-5v-11.2
	C875.4,170.7,875.7,169,876.4,167.6"/>
<path fill="#3C3C3B" d="M930,179.4c-1.2-0.9-2.6-1.5-4.3-1.7c1.6-0.3,3-0.9,4.1-1.7c1.1-0.9,1.9-1.9,2.5-3.1
	c0.5-1.2,0.8-2.5,0.8-3.9c0-2.3-0.4-4.2-1.3-5.9c-0.9-1.6-2.2-2.9-4-3.8c-1.8-0.9-4-1.3-6.6-1.3h-10.3h-2.3h-3.4v40.7h3.4h2.3h10.8
	c2.4,0,4.5-0.5,6.3-1.4c1.8-0.9,3.2-2.2,4.2-3.9c1-1.7,1.5-3.6,1.5-5.8v-0.1c0-1.6-0.3-3.1-1-4.5C932.1,181.5,931.2,180.3,930,179.4
	 M920.2,163.1c2.4,0,4.2,0.5,5.4,1.5c1.2,1,1.8,2.5,1.8,4.6c0,1.9-0.5,3.4-1.6,4.4c-1.1,1-2.7,1.5-4.8,1.5h-10.1v-11.9H920.2z
	 M927.9,186.9c0,2-0.7,3.5-2,4.6c-1.3,1.1-3.4,1.7-6.3,1.7h-8.7v-13H921c1.6,0,2.9,0.3,3.9,0.8c1,0.5,1.8,1.3,2.3,2.3
	C927.7,184.3,927.9,185.5,927.9,186.9L927.9,186.9z"/>
<path fill="#3C3C3B" d="M947.4,167.6c0.7-1.4,1.7-2.6,2.9-3.4c1.2-0.8,2.7-1.2,4.4-1.2c1.2,0,2.3,0.3,3.5,0.8
	c1.1,0.5,2.1,1.3,2.9,2.3c0.8,1,1.4,2.1,1.8,3.4h5.8c-0.5-2.4-1.4-4.5-2.7-6.3c-1.3-1.8-3-3.2-4.9-4.2c-2-1-4.1-1.5-6.4-1.5
	c-2.8,0-5.3,0.6-7.4,1.9c-2.1,1.3-3.8,3-5,5.3c-1.2,2.3-1.8,5-1.8,8v11.2c0,3,0.6,5.7,1.8,8c1.2,2.3,2.8,4.1,5,5.3
	c2.1,1.2,4.6,1.9,7.4,1.9c2.3,0,4.4-0.5,6.4-1.5c2-1,3.6-2.4,4.9-4.2c1.3-1.8,2.2-3.9,2.7-6.3h-5.8c-0.4,1.4-0.9,2.5-1.8,3.5
	c-0.8,1-1.8,1.7-2.9,2.2c-1.1,0.5-2.3,0.8-3.5,0.8c-1.7,0-3.1-0.4-4.4-1.2c-1.2-0.8-2.2-1.9-2.9-3.4c-0.7-1.5-1-3.1-1-5v-11.2
	C946.4,170.7,946.7,169,947.4,167.6"/>
<path fill="#3C3C3B" d="M996.6,159.3c-2.2-1.2-4.7-1.9-7.5-1.9c-2.8,0-5.3,0.6-7.5,1.9c-2.2,1.2-3.8,3-5,5.3
	c-1.2,2.3-1.8,4.9-1.8,7.9v11.5c0,3,0.6,5.6,1.8,7.9c1.2,2.3,2.9,4,5,5.3c2.2,1.2,4.7,1.9,7.5,1.9c2.8,0,5.3-0.6,7.5-1.9
	c2.2-1.2,3.8-3,5-5.3c1.2-2.3,1.8-4.9,1.8-7.9v-11.5c0-3-0.6-5.6-1.8-7.9C1000.5,162.3,998.8,160.5,996.6,159.3 M997.6,184.1
	c0,1.8-0.4,3.4-1,4.8s-1.7,2.5-3,3.2c-1.3,0.8-2.8,1.1-4.4,1.1s-3.2-0.4-4.4-1.1c-1.3-0.8-2.3-1.8-3-3.2s-1-3-1-4.8v-11.9
	c0-1.8,0.3-3.4,1-4.8s1.7-2.5,3-3.2c1.3-0.8,2.8-1.1,4.4-1.1s3.2,0.4,4.4,1.1c1.3,0.8,2.3,1.8,3,3.2s1,3,1,4.8V184.1z"/>
<path fill="#3C3C3B" d="M1018.8,176.3c1.2-1.2,2.9-1.8,5.1-1.8c1.2,0,2.3,0.3,3.4,0.8c1.1,0.5,2.1,1.2,2.9,2.2l4.1-3.7
	c-0.7-1-1.6-1.8-2.7-2.5c-1.1-0.7-2.3-1.2-3.6-1.6c-1.3-0.4-2.8-0.5-4.3-0.5c-2.6,0-4.9,0.5-6.8,1.5c-1.9,1-3.3,2.4-4.3,4.3
	c-1,1.9-1.5,4.1-1.5,6.7v4.8c0,2.7,0.5,4.9,1.5,6.8c1,1.9,2.4,3.3,4.3,4.3c1.9,1,4.1,1.5,6.8,1.5c1.5,0,2.9-0.2,4.2-0.5
	c1.3-0.4,2.5-0.9,3.6-1.6c1.1-0.7,2-1.5,2.7-2.5l-4.1-4c-0.8,1-1.8,1.8-2.9,2.3c-1.1,0.5-2.3,0.8-3.5,0.8c-2.2,0-3.9-0.6-5.1-1.9
	c-1.2-1.2-1.8-3-1.8-5.3v-4.8C1017,179.3,1017.6,177.6,1018.8,176.3"/>
<path fill="#3C3C3B" d="M1055.9,192.7c-1.1,0.5-2.3,0.8-3.5,0.8c-2.2,0-3.9-0.6-5.1-1.9c-1.2-1.3-1.8-3-1.8-5.3v-4.8
	c0-2.2,0.6-4,1.8-5.2c1.2-1.2,2.9-1.8,5.1-1.8c1.2,0,2.3,0.3,3.4,0.8c1.1,0.5,2.1,1.2,2.9,2.2l4.1-3.7c-0.7-1-1.6-1.8-2.7-2.5
	c-1.1-0.7-2.3-1.2-3.6-1.6c-1.3-0.4-2.8-0.5-4.3-0.5c-2.6,0-4.9,0.5-6.8,1.5c-1.9,1-3.3,2.4-4.3,4.3c-1,1.9-1.5,4.1-1.5,6.7v4.8
	c0,2.7,0.5,4.9,1.5,6.8c1,1.9,2.4,3.3,4.3,4.3c1.9,1,4.1,1.5,6.8,1.5c1.5,0,2.9-0.2,4.2-0.5s2.5-0.9,3.6-1.6c1.1-0.7,2-1.5,2.7-2.5
	l-4.1-4C1058,191.4,1057,192.2,1055.9,192.7"/>
</svg>
