<!-- Generator: Adobe Illustrator 18.0.0, SVG Export Plug-In  -->
<svg version="1.1"
	 xmlns="http://www.w3.org/2000/svg" xmlns:xlink="http://www.w3.org/1999/xlink" xmlns:a="http://ns.adobe.com/AdobeSVGViewerExtensions/3.0/"
	 x="0px" y="0px" width="221.9px" height="237.1px" viewBox="0 0 221.9 237.1" enable-background="new 0 0 221.9 237.1"
	 xml:space="preserve">
<defs>
</defs>
<path fill="#205DFE" d="M186.8,17.1h-4.6c-1,0-1.8-0.8-1.8-1.8V8.5c0-4.4-3.3-8.2-7.7-8.5c-4.8-0.3-8.8,3.5-8.8,8.2v7.1
	c0,1-0.8,1.8-1.8,1.8h-95c-1,0-1.8-0.8-1.8-1.8V8.5c0-4.4-3.3-8.2-7.7-8.5c-4.8-0.3-8.8,3.5-8.8,8.2v7.1c0,1-0.8,1.8-1.8,1.8h-5.3
	c-19.3,0-35,15.7-35,35v144.7v0c0,10.3,4.4,19.5,11.5,25.9c0.4,0.4,0.8,0.7,1.3,1.1c6.1,5,13.8,8,22.3,8h0h64.3h80.5
	c19.3,0,35-15.7,35-35v-51.6V52.1C221.9,32.8,206.2,17.1,186.8,17.1"/>
<path fill="#FFFFFF" d="M221.8,148.4c-5.8,22-38.1,26.6-63.5,26.7c-5.7,0-15-0.9-21.7,7.4c-6.7,8.3-5.5,19.5-10,35.9
	c-3.5,12.7-18.5,13.4-18.5,13.4c63.4,0.6,100.7-37.8,111.2-68C221,158.9,221.8,153.7,221.8,148.4"/>
<g>
	<defs>
		<path id="SVGID_1_" d="M54.3,148.4c-8.6,2.4-12,6.3-12,6.3l-8.6,14.8c-6.1,10.4-2.5,23.8,7.9,29.9c3.5,2,7.2,3,11,3
			c7.5,0,14.9-3.9,18.9-10.9L97.3,147H84.7c0,0-2.8-0.1-6.8-0.1C70.4,146.9,58.9,147.1,54.3,148.4"/>
	</defs>
	<clipPath id="SVGID_2_">
		<use xlink:href="#SVGID_1_"  overflow="visible"/>
	</clipPath>
	
		<linearGradient id="SVGID_3_" gradientUnits="userSpaceOnUse" x1="-2099.9915" y1="4633.6685" x2="-2098.9915" y2="4633.6685" gradientTransform="matrix(52.9189 -56.2015 -56.2015 -52.9189 371595.625 127376.6797)">
		<stop  offset="0" style="stop-color:#FFFFFF"/>
		<stop  offset="0.2151" style="stop-color:#EAEAF7"/>
		<stop  offset="0.757" style="stop-color:#9A97F4"/>
		<stop  offset="1" style="stop-color:#8C88F4"/>
	</linearGradient>
	<polygon clip-path="url(#SVGID_2_)" fill="url(#SVGID_3_)" points="0,176.3 60.4,112.1 125,173 64.6,237.1 	"/>
</g>
<path fill="#FFFFFF" d="M148.7,47.2h-64c-12.1,0-21.9,9.8-21.9,21.9c0,12.1,9.8,21.9,21.9,21.9h64c3.4,0,6.2,2.8,6.2,6.2
	c0,3.4-2.8,6.2-6.2,6.2h-64c-8.3,0-15.5,4.6-19.2,11.4h0l-7.2,12.4l-16,27.6c0,0,3.4-3.9,12-6.3c7.1-2,30.5-1.4,30.5-1.4h12.6h51.4
	c27.5,0,49.9-22.4,49.9-49.9C198.6,69.6,176.2,47.2,148.7,47.2"/>
</svg>
