<svg id="Logo" xmlns="http://www.w3.org/2000/svg" xmlns:xlink="http://www.w3.org/1999/xlink" width="500" height="500" viewBox="0 0 500 500">
  <defs>
    <style>
      .cls-1, .cls-2, .cls-3, .cls-4, .cls-5, .cls-6 {
        fill-rule: evenodd;
      }

      .cls-1 {
        fill: url(#linear-gradient);
      }

      .cls-2, .cls-4 {
        fill: #fff;
      }

      .cls-2 {
        opacity: 0.75;
      }

      .cls-3 {
        fill: #f14736;
      }

      .cls-5 {
        fill: #010202;
        opacity: 0.25;
      }

      .cls-6 {
        fill: #d8d8d8;
      }
    </style>
    <linearGradient id="linear-gradient" x1="249.594" y1="452.156" x2="249.594" y2="155.719" gradientUnits="userSpaceOnUse">
      <stop offset="0" stop-color="#ffd800"/>
      <stop offset="1" stop-color="#f14736"/>
    </linearGradient>
  </defs>
  <path id="Cuerpo" class="cls-1" d="M447.024,155.829c0.007,93.675-.12,154.35-0.071,248.024,0.017,31.79-21.456,48.516-48.639,48.3-100.254-.79-200.52-0.3-300.78-0.323-26.712-.006-45.172-17.993-45.224-44.674-0.181-95.143-.157-156.287-0.167-251.432"/>
  <path id="Cuerpo_sombra" data-name="Cuerpo sombra" class="cls-2" d="M53,375s2,36.858,2,38.211c-0.1,11.754,10.084,28.337,38,28.551,1.987,0.071,308.609,0,310,0,20.067-.285,39.2-9.531,40-28.551,0-1.5,3-38.211,3-38.211h1s-0.1,40.59,0,42.514c0.2,18.165-17.574,34.419-44,34.419-2.086.071-308.212,0.071-310,0-20.763-1.069-40.9-11.98-41-34.419V375h1Z"/>
  <path id="Cubierta" class="cls-3" d="M400.488,78.285C424.53,80.018,439.724,85.687,447,111c-0.029,18.574,0,45.666,0,45.666H52s-0.183-24.865-.127-45.423C60.5,87.159,73.18,78.157,98.6,78.141"/>
  <path id="nube_copia" data-name="nube copia" class="cls-4" d="M409.259,443.967V444H88.927v-0.066C51.733,442.55,52,411.959,52,374.4a69.6,69.6,0,0,1,53.85-67.8c-0.023-.6-0.046-1.2-0.046-1.8a47.232,47.232,0,0,1,80.5-33.567A103.667,103.667,0,0,1,385.2,325.883c0.91-.042,1.825-0.07,2.746-0.07A59.073,59.073,0,0,1,447,384.907C447,417.1,441.265,443.266,409.259,443.967Z"/>
  <path id="Anillos" class="cls-5" d="M321.134,96.761c0.145,7.313.2,14.628,0.453,21.936,0.477,13.892,9.033,22.711,21.625,22.438,11.957-.26,19.775-9.11,19.972-22.589,0.1-6.584.218-13.169,0.328-19.754,12.324,11.515,14.056,27.434,4.387,40.338-9.361,12.5-26.947,16.317-40.321,8.765a31.262,31.262,0,0,1-13.441-38.889C315.926,104.7,318.772,100.83,321.134,96.761ZM135.666,98.79c0.11,6.957.178,13.914,0.34,20.87,0.294,12.611,8.359,21.243,20,21.478,11.7,0.236,20.638-7.992,21.519-20.316,0.521-7.291.37-14.63,0.522-21.949,12.266,13.121,12.09,33.385-.39,44.912s-32.4,10.474-44.282-2.348C121.511,128.63,122.452,111.117,135.666,98.79Z"/>
  <path id="Ganchos" class="cls-6" d="M135.666,98.79q0.051-9.778.1-19.556c0.657-8.564-1.3-17.576,5.965-24.756,11.878-11.742,29.81-6.3,34.867,10.578,1.416,4.726.749,9.423,1.343,14.1q0.051,9.857.1,19.716c-0.152,7.319,0,14.658-.522,21.949-0.881,12.324-9.817,20.552-21.519,20.316-11.639-.235-19.7-8.867-20-21.478C135.844,112.7,135.776,105.747,135.666,98.79Zm185.468-2.029q0.051-8.8.1-17.6c-0.135-8.509.094-17.36,5.976-23.864,5.235-5.786,12.274-8.8,20.805-6.107,8.591,2.707,13.719,8.164,15.009,16.912,0.635,4.3.287,8.754,0.384,13.136q0.054,9.778.1,19.558c-0.11,6.585-.231,13.17-0.328,19.754-0.2,13.479-8.015,22.329-19.972,22.589-12.592.273-21.148-8.546-21.625-22.438C321.336,111.389,321.279,104.074,321.134,96.761Z"/>
</svg>
