<svg id="Logo" xmlns="http://www.w3.org/2000/svg" xmlns:xlink="http://www.w3.org/1999/xlink" width="1331" height="500" viewBox="0 0 1331 500">
  <defs>
    <style>
      .cls-1, .cls-2, .cls-3, .cls-4, .cls-5, .cls-6, .cls-7, .cls-8 {
        fill-rule: evenodd;
      }

      .cls-1 {
        fill: url(#linear-gradient);
      }

      .cls-2, .cls-4 {
        fill: #fff;
      }

      .cls-2 {
        opacity: 0.75;
      }

      .cls-3 {
        fill: #f14736;
      }

      .cls-5 {
        opacity: 0.25;
      }

      .cls-6 {
        fill: #d9d9d9;
      }

      .cls-7 {
        fill: #f14836;
      }

      .cls-8 {
        fill: #efc573;
      }
    </style>
    <linearGradient id="linear-gradient" x1="250.594" y1="435.156" x2="250.594" y2="131.906" gradientUnits="userSpaceOnUse">
      <stop offset="0" stop-color="#ffd900"/>
      <stop offset="1" stop-color="#f14736"/>
    </linearGradient>
  </defs>
  <path id="Cuerpo" class="cls-1" d="M448.024,132.023c0.007,93.675-.12,161.156-0.071,254.83,0.017,31.79-21.456,48.516-48.639,48.3-100.254-.79-200.52-0.3-300.78-0.323-26.712-.006-45.172-17.993-45.224-44.674-0.181-95.143-.157-163.093-0.167-258.238"/>
  <path id="Cuerpo_sombra" data-name="Cuerpo sombra" class="cls-2" d="M54,358s2,36.858,2,38.211c-0.1,11.754,10.084,28.337,38,28.551,1.987,0.071,308.609,0,310,0,20.067-.285,39.2-9.531,40-28.551,0-1.5,3-38.211,3-38.211h1s-0.1,40.59,0,42.514c0.2,18.165-17.574,34.419-44,34.419-2.086.071-308.212,0.071-310,0-20.763-1.069-40.9-11.98-41-34.419V358h1Z"/>
  <path id="Cubierta" class="cls-3" d="M401.488,61.285C425.53,63.018,440.724,68.687,448,94c-0.029,18.574,0,45.666,0,45.666H53s-0.183-24.865-.127-45.423C61.5,70.159,74.18,61.157,99.6,61.141"/>
  <path id="nube_copia" data-name="nube copia" class="cls-4" d="M410.259,426.967V427H89.927v-0.066C52.733,425.55,53,394.959,53,357.4a69.6,69.6,0,0,1,53.85-67.8c-0.023-.6-0.046-1.2-0.046-1.8a47.232,47.232,0,0,1,80.5-33.567A103.667,103.667,0,0,1,386.2,308.883c0.91-.042,1.825-0.07,2.746-0.07A59.073,59.073,0,0,1,448,367.907C448,400.1,442.265,426.266,410.259,426.967Z"/>
  <path id="Anillos" class="cls-5" d="M322.134,79.761c0.145,7.313.2,14.628,0.453,21.936,0.477,13.892,9.033,22.711,21.625,22.438,11.957-.26,19.775-9.11,19.972-22.589,0.1-6.584.218-13.169,0.328-19.754,12.324,11.515,14.056,27.434,4.387,40.338-9.361,12.5-26.947,16.317-40.321,8.765a31.262,31.262,0,0,1-13.441-38.889C316.926,87.7,319.772,83.83,322.134,79.761ZM136.666,81.79c0.11,6.957.178,13.914,0.34,20.87,0.294,12.611,8.359,21.243,20,21.478,11.7,0.236,20.638-7.992,21.519-20.316,0.521-7.291.37-14.63,0.522-21.949,12.266,13.121,12.09,33.385-.39,44.912s-32.4,10.474-44.282-2.348C122.511,111.63,123.452,94.117,136.666,81.79Z"/>
  <path id="Ganchos" class="cls-6" d="M136.666,81.79q0.051-9.778.1-19.556c0.657-8.564-1.3-17.576,5.965-24.756,11.878-11.742,29.81-6.3,34.867,10.578,1.416,4.726.749,9.423,1.343,14.1q0.051,9.857.1,19.716c-0.152,7.318,0,14.658-.522,21.949-0.881,12.324-9.817,20.552-21.519,20.316-11.639-.235-19.7-8.867-20-21.478C136.844,95.7,136.776,88.747,136.666,81.79Zm185.468-2.029q0.051-8.8.1-17.6c-0.135-8.51.094-17.36,5.976-23.864,5.235-5.786,12.274-8.8,20.805-6.107,8.591,2.707,13.719,8.164,15.009,16.912,0.635,4.3.287,8.754,0.384,13.137q0.054,9.778.1,19.558c-0.11,6.586-.231,13.17-0.328,19.754-0.2,13.479-8.015,22.329-19.972,22.589-12.592.273-21.148-8.546-21.625-22.438C322.336,94.389,322.279,87.074,322.134,79.761Z"/>
  <path id="PROYECCIONES_copia" data-name="PROYECCIONES copia" class="cls-7" d="M557.147,162.533a28.293,28.293,0,0,0,9.127-1.378,19.62,19.62,0,0,0,6.884-3.909,17,17,0,0,0,4.331-6.068,19.945,19.945,0,0,0,1.508-7.9,21.435,21.435,0,0,0-1.508-8.125,18.422,18.422,0,0,0-4.331-6.439,19.835,19.835,0,0,0-6.884-4.237,25.847,25.847,0,0,0-9.127-1.523h-22.47v59.9h13.575V162.533h8.9Zm-8.9-28.429h8.9a8.12,8.12,0,0,1,3.654.761,7.169,7.169,0,0,1,2.514,2.036,8.475,8.475,0,0,1,1.451,2.942,13.069,13.069,0,0,1,.464,3.518,10.7,10.7,0,0,1-.464,3.209,6.411,6.411,0,0,1-3.965,4.217,10.039,10.039,0,0,1-3.654.6h-8.9V134.1Zm81.115,48.753h14.542V182.24l-11.757-24.15a21.4,21.4,0,0,0,4.022-2.613,14.985,14.985,0,0,0,3.113-3.538,16.387,16.387,0,0,0,1.992-4.731,24.679,24.679,0,0,0,.7-6.151,19.216,19.216,0,0,0-1.489-7.817,15.079,15.079,0,0,0-4.273-5.657,19.015,19.015,0,0,0-6.73-3.456,30.884,30.884,0,0,0-8.817-1.173h-22.16v59.9H612.08V161.71h7.348ZM612.08,134.1h8.586a7.389,7.389,0,0,1,5.8,2.2,8.767,8.767,0,0,1,1.972,6.068,8.666,8.666,0,0,1-1.953,6.028,7.451,7.451,0,0,1-5.82,2.16H612.08V134.1Zm98.055,17.609A38.684,38.684,0,0,0,708.3,139.37a27.731,27.731,0,0,0-5.105-9.3,22.239,22.239,0,0,0-7.793-5.883,25.029,25.029,0,0,0-19.878,0,22.248,22.248,0,0,0-7.793,5.883,27.2,27.2,0,0,0-5.066,9.3,39.428,39.428,0,0,0-1.8,12.343v2.427a39.038,39.038,0,0,0,1.817,12.343,27.457,27.457,0,0,0,5.086,9.3,21.973,21.973,0,0,0,7.812,5.863,24.176,24.176,0,0,0,10,2.036,23.72,23.72,0,0,0,9.881-2.036,22.078,22.078,0,0,0,7.774-5.863,27.473,27.473,0,0,0,5.085-9.3,39.038,39.038,0,0,0,1.818-12.343v-2.427Zm-13.807,2.427q0,8.846-2.784,13.556a8.775,8.775,0,0,1-7.967,4.711,8.868,8.868,0,0,1-8.16-4.731q-2.747-4.731-2.746-13.536v-2.51q0-8.926,2.688-13.556a9.371,9.371,0,0,1,16.166,0q2.8,4.629,2.8,13.556v2.51Zm41.63-31.186h-14.58l18.1,38.386v21.517h13.767V161.34l18.138-38.386H758.726l-10.364,26Zm86.724,23.78H803.334V134.1h25.292v-11.15H789.759v59.9h38.79V171.749H803.334V157.473h21.348V146.734Zm53.734,15.84q-0.155,5.1-2.63,7.447t-7.154,2.345a10.168,10.168,0,0,1-4.7-.987,7.4,7.4,0,0,1-3.094-3.148,17.3,17.3,0,0,1-1.721-5.533,52.361,52.361,0,0,1-.541-8.147v-3.332a47.724,47.724,0,0,1,.6-8.167,16.988,16.988,0,0,1,1.837-5.533,7.879,7.879,0,0,1,3.094-3.127,9.169,9.169,0,0,1,4.37-.988,13.757,13.757,0,0,1,4.564.659A7.6,7.6,0,0,1,876.1,136a7.753,7.753,0,0,1,1.759,3.209,18.017,18.017,0,0,1,.639,4.444h13.535a28.024,28.024,0,0,0-2.049-8.6A20.171,20.171,0,0,0,878.2,123.715a27.04,27.04,0,0,0-9.727-1.625,22.792,22.792,0,0,0-9.746,2.037,21.149,21.149,0,0,0-7.483,5.821,26.822,26.822,0,0,0-4.8,9.2A40.853,40.853,0,0,0,844.77,151.3v3.25a42.7,42.7,0,0,0,1.605,12.158,26,26,0,0,0,4.68,9.175,20.548,20.548,0,0,0,7.5,5.78,24.061,24.061,0,0,0,10.075,2.016,27.29,27.29,0,0,0,9.436-1.543,21.372,21.372,0,0,0,7.232-4.32,19.643,19.643,0,0,0,4.718-6.665,23.624,23.624,0,0,0,1.895-8.578h-13.5Zm64.254,0q-0.154,5.1-2.63,7.447t-7.154,2.345a10.165,10.165,0,0,1-4.7-.987,7.4,7.4,0,0,1-3.094-3.148,17.3,17.3,0,0,1-1.721-5.533,52.361,52.361,0,0,1-.541-8.147v-3.332a47.724,47.724,0,0,1,.6-8.167,16.964,16.964,0,0,1,1.837-5.533,7.879,7.879,0,0,1,3.094-3.127,9.166,9.166,0,0,1,4.37-.988,13.751,13.751,0,0,1,4.563.659A7.6,7.6,0,0,1,940.35,136a7.753,7.753,0,0,1,1.759,3.209,17.972,17.972,0,0,1,.638,4.444h13.536a28.024,28.024,0,0,0-2.049-8.6,20.177,20.177,0,0,0-11.777-11.335,27.031,27.031,0,0,0-9.726-1.625,22.789,22.789,0,0,0-9.746,2.037,21.14,21.14,0,0,0-7.483,5.821,26.841,26.841,0,0,0-4.8,9.2,40.886,40.886,0,0,0-1.682,12.157v3.25a42.7,42.7,0,0,0,1.605,12.158,26,26,0,0,0,4.68,9.175,20.548,20.548,0,0,0,7.5,5.78,24.061,24.061,0,0,0,10.075,2.016,27.29,27.29,0,0,0,9.436-1.543,21.372,21.372,0,0,0,7.232-4.32,19.657,19.657,0,0,0,4.718-6.665,23.645,23.645,0,0,0,1.895-8.578h-13.5Zm46.658-39.62H975.792v59.9h13.536v-59.9Zm69.4,28.759a38.794,38.794,0,0,0-1.84-12.343,27.792,27.792,0,0,0-5.11-9.3,22.21,22.21,0,0,0-7.79-5.883,25.033,25.033,0,0,0-19.88,0,22.3,22.3,0,0,0-7.79,5.883,27.21,27.21,0,0,0-5.07,9.3,39.4,39.4,0,0,0-1.8,12.343v2.427a39.093,39.093,0,0,0,1.82,12.343,27.413,27.413,0,0,0,5.09,9.3,21.983,21.983,0,0,0,7.81,5.863,24.177,24.177,0,0,0,10,2.036,23.749,23.749,0,0,0,9.88-2.036,22.109,22.109,0,0,0,7.77-5.863,27.413,27.413,0,0,0,5.09-9.3,39.093,39.093,0,0,0,1.82-12.343v-2.427Zm-13.81,2.427q0,8.846-2.79,13.556a8.764,8.764,0,0,1-7.96,4.711,8.868,8.868,0,0,1-8.16-4.731q-2.745-4.731-2.75-13.536v-2.51q0-8.926,2.69-13.556a9.366,9.366,0,0,1,16.16,0q2.805,4.629,2.81,13.556v2.51Zm80.11-31.186h-13.54v37.275l-19.91-37.275H1078v59.9h13.58V145.582l19.95,37.275h13.5v-59.9Zm55.78,23.78h-21.34V134.1h25.29v-11.15h-38.87v59.9h38.79V171.749h-25.21V157.473h21.34V146.734Zm50.32,22.464a4.92,4.92,0,0,1-1.3,1.872,6.484,6.484,0,0,1-2.26,1.275,10.22,10.22,0,0,1-3.31.474,16.953,16.953,0,0,1-4.23-.474,7.492,7.492,0,0,1-3.12-1.584,6.933,6.933,0,0,1-1.93-2.9,12.873,12.873,0,0,1-.66-4.423h-13.61a20.215,20.215,0,0,0,.95,6.418,18.373,18.373,0,0,0,2.59,5.143,17.01,17.01,0,0,0,3.9,3.888,23.843,23.843,0,0,0,4.88,2.695,26.919,26.919,0,0,0,5.47,1.584,32.618,32.618,0,0,0,5.76.514,30.853,30.853,0,0,0,8.57-1.111,19.144,19.144,0,0,0,6.57-3.25,14.588,14.588,0,0,0,4.22-5.287,16.632,16.632,0,0,0,1.49-7.179,17.407,17.407,0,0,0-1.26-6.789,16.378,16.378,0,0,0-3.68-5.389,24.866,24.866,0,0,0-5.93-4.238,55.905,55.905,0,0,0-8.01-3.373c-1.6-.549-3.03-1.1-4.31-1.667a17.573,17.573,0,0,1-3.25-1.81,8.093,8.093,0,0,1-2.05-2.057,4.414,4.414,0,0,1-.71-2.448,5.413,5.413,0,0,1,.5-2.325,5.558,5.558,0,0,1,1.49-1.933,7.06,7.06,0,0,1,2.45-1.317,11.171,11.171,0,0,1,3.41-.473,9.265,9.265,0,0,1,3.42.576,6.946,6.946,0,0,1,2.44,1.584,6.532,6.532,0,0,1,1.47,2.427,9.649,9.649,0,0,1,.48,3.107h13.54a18.351,18.351,0,0,0-1.57-7.673,17.111,17.111,0,0,0-4.35-5.863,19.721,19.721,0,0,0-6.65-3.744,26.129,26.129,0,0,0-8.47-1.317,29.936,29.936,0,0,0-8.65,1.194,21.7,21.7,0,0,0-6.86,3.373,15.74,15.74,0,0,0-4.53,5.287,16.085,16.085,0,0,0-.02,14.029,17.861,17.861,0,0,0,4.28,5.287,28.061,28.061,0,0,0,6.11,3.909,73.66,73.66,0,0,0,7.15,2.962,43.211,43.211,0,0,1,5.13,2.1,13.2,13.2,0,0,1,3.03,2,5,5,0,0,1,1.45,2.139,8.021,8.021,0,0,1,.37,2.53A6.332,6.332,0,0,1,1231.13,169.2Z"/>
  <path id="CLOUD_copia" data-name="CLOUD copia" class="cls-8" d="M612.212,322.908q-0.382,12.613-6.5,18.412t-17.69,5.8a25.136,25.136,0,0,1-11.618-2.441,18.284,18.284,0,0,1-7.65-7.782,42.792,42.792,0,0,1-4.255-13.682,129.262,129.262,0,0,1-1.339-20.142v-8.24a117.986,117.986,0,0,1,1.482-20.192,41.974,41.974,0,0,1,4.542-13.682,19.492,19.492,0,0,1,7.65-7.731,22.684,22.684,0,0,1,10.8-2.442,34.05,34.05,0,0,1,11.284,1.628,18.793,18.793,0,0,1,7.554,4.781,19.178,19.178,0,0,1,4.351,7.935,44.586,44.586,0,0,1,1.577,10.986h33.468a69.281,69.281,0,0,0-5.068-21.261,49.88,49.88,0,0,0-29.117-28.025,66.836,66.836,0,0,0-24.049-4.018,56.354,56.354,0,0,0-24.1,5.035,52.294,52.294,0,0,0-18.5,14.4,66.355,66.355,0,0,0-11.857,22.735,101.059,101.059,0,0,0-4.16,30.06v8.036a105.568,105.568,0,0,0,3.969,30.06,64.268,64.268,0,0,0,11.57,22.685,50.817,50.817,0,0,0,18.55,14.292,59.508,59.508,0,0,0,24.91,4.985,67.511,67.511,0,0,0,23.332-3.815A52.911,52.911,0,0,0,629.233,360.6a48.617,48.617,0,0,0,11.666-16.48,58.479,58.479,0,0,0,4.685-21.209H612.212Zm113.163-97.962H691.812V373.058H783.8V345.592H725.375V224.946Zm214.713,71.106a95.63,95.63,0,0,0-4.542-30.517,68.559,68.559,0,0,0-12.622-22.99A55.036,55.036,0,0,0,903.656,228a61.914,61.914,0,0,0-49.15,0,55.027,55.027,0,0,0-19.268,14.547,67.267,67.267,0,0,0-12.526,22.99,97.5,97.5,0,0,0-4.446,30.517v6a96.511,96.511,0,0,0,4.494,30.518,67.842,67.842,0,0,0,12.574,22.989,54.332,54.332,0,0,0,19.316,14.5,59.743,59.743,0,0,0,24.718,5.036,58.626,58.626,0,0,0,24.431-5.036,54.6,54.6,0,0,0,19.22-14.5,67.911,67.911,0,0,0,12.574-22.989,96.539,96.539,0,0,0,4.5-30.518v-6Zm-34.137,6q0,21.873-6.885,33.518t-19.7,11.648q-13.389,0-20.176-11.7T852.4,302.054v-6.2q0-22.072,6.645-33.519t20.129-11.444q12.909,0,19.841,11.444t6.933,33.519v6.2Zm157.439-77.108v96.741q0,13.732-5.36,19.836t-15.78,6.1q-10.23,0-15.73-6.1t-5.49-19.836V224.946H987.271v96.741a61.187,61.187,0,0,0,4.016,22.99,46.247,46.247,0,0,0,11.233,16.734,47.412,47.412,0,0,0,17.36,10.223,74.259,74.259,0,0,0,44.8,0,46.99,46.99,0,0,0,17.26-10.223,45.6,45.6,0,0,0,11.09-16.734,62.586,62.586,0,0,0,3.92-22.99V224.946h-33.56Zm130.08,148.112a63.044,63.044,0,0,0,25.73-5.188,60.1,60.1,0,0,0,20.32-14.546,66.834,66.834,0,0,0,13.33-22.38,82.909,82.909,0,0,0,4.79-28.788V295.95a83.039,83.039,0,0,0-4.79-28.737,67.336,67.336,0,0,0-13.33-22.481,59.63,59.63,0,0,0-20.42-14.6,64.194,64.194,0,0,0-26.01-5.188h-44.85V373.058h45.23Zm-0.38-120.544q14.82,0,22.57,10.884t7.74,32.349v6.409q0,21.567-7.74,32.5-7.755,10.936-22.19,10.935h-11.66V252.514h11.28Z"/>
</svg>
